HIERARCHY
ROOT Hips
{
	OFFSET -14.64140 90.27770 -84.91600
	CHANNELS 6 Xposition Yposition Zposition Zrotation Xrotation Yrotation
	JOINT Spine
	{
		OFFSET 0.00000 13.20850 -1.60436
		CHANNELS 3 Zrotation Xrotation Yrotation
		JOINT Spine1
		{
			OFFSET 0.00000 8.61716 0.00000
			CHANNELS 3 Zrotation Xrotation Yrotation
			JOINT Spine2
			{
				OFFSET 0.00000 8.61717 0.00000
				CHANNELS 3 Zrotation Xrotation Yrotation
				JOINT Spine3
				{
					OFFSET 0.00000 8.61717 0.00000
					CHANNELS 3 Zrotation Xrotation Yrotation
					JOINT Neck
					{
						OFFSET 0.00000 11.07920 1.10792
						CHANNELS 3 Zrotation Xrotation Yrotation
						JOINT Neck1
						{
							OFFSET 0.00000 7.08032 0.00000
							CHANNELS 3 Zrotation Xrotation Yrotation
							JOINT Head
							{
								OFFSET 0.00000 7.08031 0.00000
								CHANNELS 3 Zrotation Xrotation Yrotation
								End site
								{
									OFFSET 0.00000 0.00000 0.00000
								}
							}
						}
					}
					JOINT RightShoulder
					{
						OFFSET -0.01000 7.91373 5.19711
						CHANNELS 3 Zrotation Xrotation Yrotation
						JOINT RightArm
						{
							OFFSET -18.41580 0.00000 0.00000
							CHANNELS 3 Zrotation Xrotation Yrotation
							JOINT RightForeArm
							{
								OFFSET -29.11090 0.00000 0.00000
								CHANNELS 3 Zrotation Xrotation Yrotation
								JOINT RightHand
								{
									OFFSET -24.65040 0.00000 0.00000
									CHANNELS 3 Zrotation Xrotation Yrotation
									JOINT RightHandThumb1
									{
										OFFSET -5.35114 -0.85590 3.97906
										CHANNELS 3 Zrotation Xrotation Yrotation
										JOINT RightHandThumb2
										{
											OFFSET -4.52789 0.00000 0.00000
											CHANNELS 3 Zrotation Xrotation Yrotation
											JOINT RightHandThumb3
											{
												OFFSET -2.46976 0.00000 0.00000
												CHANNELS 3 Zrotation Xrotation Yrotation
												End site
												{
													OFFSET 0.00000 0.00000 0.00000
												}
											}
										}
									}
									JOINT RightHandIndex1
									{
										OFFSET -14.26970 0.00000 2.88139
										CHANNELS 3 Zrotation Xrotation Yrotation
										JOINT RightHandIndex2
										{
											OFFSET -5.48836 0.00000 0.00000
											CHANNELS 3 Zrotation Xrotation Yrotation
											JOINT RightHandIndex3
											{
												OFFSET -3.01859 0.00000 0.00000
												CHANNELS 3 Zrotation Xrotation Yrotation
												End site
												{
													OFFSET 0.00000 0.00000 0.00000
												}
											}
										}
									}
									JOINT RightHandMiddle1
									{
										OFFSET -14.26970 0.00000 -0.09147
										CHANNELS 3 Zrotation Xrotation Yrotation
										JOINT RightHandMiddle2
										{
											OFFSET -6.17441 0.00000 0.00000
											CHANNELS 3 Zrotation Xrotation Yrotation
											JOINT RightHandMiddle3
											{
												OFFSET -3.56743 0.00000 0.00000
												CHANNELS 3 Zrotation Xrotation Yrotation
												End site
												{
													OFFSET 0.00000 0.00000 0.00000
												}
											}
										}
									}
									JOINT RightHandRing1
									{
										OFFSET -12.69180 0.00000 -3.06433
										CHANNELS 3 Zrotation Xrotation Yrotation
										JOINT RightHandRing2
										{
											OFFSET -5.62556 0.00000 0.00000
											CHANNELS 3 Zrotation Xrotation Yrotation
											JOINT RightHandRing3
											{
												OFFSET -3.56744 0.00000 0.00000
												CHANNELS 3 Zrotation Xrotation Yrotation
												End site
												{
													OFFSET 0.00000 0.00000 0.00000
												}
											}
										}
									}
									JOINT RightHandPinky1
									{
										OFFSET -11.11390 0.00000 -6.03719
										CHANNELS 3 Zrotation Xrotation Yrotation
										JOINT RightHandPinky2
										{
											OFFSET -4.52789 0.00000 0.00000
											CHANNELS 3 Zrotation Xrotation Yrotation
											JOINT RightHandPinky3
											{
												OFFSET -2.46976 0.00000 0.00000
												CHANNELS 3 Zrotation Xrotation Yrotation
												End site
												{
													OFFSET 0.00000 0.00000 0.00000
												}
											}
										}
									}
								}
							}
						}
					}
					JOINT LeftShoulder
					{
						OFFSET 0.01000 7.91373 5.19711
						CHANNELS 3 Zrotation Xrotation Yrotation
						JOINT LeftArm
						{
							OFFSET 18.41580 0.00000 0.00000
							CHANNELS 3 Zrotation Xrotation Yrotation
							JOINT LeftForeArm
							{
								OFFSET 29.11090 0.00000 0.00000
								CHANNELS 3 Zrotation Xrotation Yrotation
								JOINT LeftHand
								{
									OFFSET 24.65040 0.00000 0.00000
									CHANNELS 3 Zrotation Xrotation Yrotation
									JOINT LeftHandThumb1
									{
										OFFSET 5.35114 -0.85590 3.97906
										CHANNELS 3 Zrotation Xrotation Yrotation
										JOINT LeftHandThumb2
										{
											OFFSET 4.52789 0.00000 0.00000
											CHANNELS 3 Zrotation Xrotation Yrotation
											JOINT LeftHandThumb3
											{
												OFFSET 2.46977 0.00000 0.00000
												CHANNELS 3 Zrotation Xrotation Yrotation
												End site
												{
													OFFSET 0.00000 0.00000 0.00000
												}
											}
										}
									}
									JOINT LeftHandIndex1
									{
										OFFSET 14.26970 0.00000 2.88139
										CHANNELS 3 Zrotation Xrotation Yrotation
										JOINT LeftHandIndex2
										{
											OFFSET 5.48836 0.00000 0.00000
											CHANNELS 3 Zrotation Xrotation Yrotation
											JOINT LeftHandIndex3
											{
												OFFSET 3.01859 0.00000 0.00000
												CHANNELS 3 Zrotation Xrotation Yrotation
												End site
												{
													OFFSET 0.00000 0.00000 0.00000
												}
											}
										}
									}
									JOINT LeftHandMiddle1
									{
										OFFSET 14.26970 0.00000 -0.09147
										CHANNELS 3 Zrotation Xrotation Yrotation
										JOINT LeftHandMiddle2
										{
											OFFSET 6.17440 0.00000 0.00000
											CHANNELS 3 Zrotation Xrotation Yrotation
											JOINT LeftHandMiddle3
											{
												OFFSET 3.56744 0.00000 0.00000
												CHANNELS 3 Zrotation Xrotation Yrotation
												End site
												{
													OFFSET 0.00000 0.00000 0.00000
												}
											}
										}
									}
									JOINT LeftHandRing1
									{
										OFFSET 12.69180 0.00000 -3.06433
										CHANNELS 3 Zrotation Xrotation Yrotation
										JOINT LeftHandRing2
										{
											OFFSET 5.62556 0.00000 0.00000
											CHANNELS 3 Zrotation Xrotation Yrotation
											JOINT LeftHandRing3
											{
												OFFSET 3.56744 0.00000 0.00000
												CHANNELS 3 Zrotation Xrotation Yrotation
												End site
												{
													OFFSET 0.00000 0.00000 0.00000
												}
											}
										}
									}
									JOINT LeftHandPinky1
									{
										OFFSET 11.11390 0.00000 -6.03719
										CHANNELS 3 Zrotation Xrotation Yrotation
										JOINT LeftHandPinky2
										{
											OFFSET 4.52789 0.00000 0.00000
											CHANNELS 3 Zrotation Xrotation Yrotation
											JOINT LeftHandPinky3
											{
												OFFSET 2.46976 0.00000 0.00000
												CHANNELS 3 Zrotation Xrotation Yrotation
												End site
												{
													OFFSET 0.00000 0.00000 0.00000
												}
											}
										}
									}
								}
							}
						}
					}
					JOINT pCube4
					{
						OFFSET 0.00000 10.91090 1.10792
						CHANNELS 3 Zrotation Xrotation Yrotation
						End site
						{
							OFFSET 0.00000 0.00000 0.00000
						}
					}
				}
			}
		}
	}
	JOINT RightUpLeg
	{
		OFFSET -9.98441 0.00000 0.00000
		CHANNELS 3 Zrotation Xrotation Yrotation
		JOINT RightLeg
		{
			OFFSET 0.00000 -42.11790 0.00000
			CHANNELS 3 Zrotation Xrotation Yrotation
			JOINT RightFoot
			{
				OFFSET 0.00000 -45.00020 -0.00001
				CHANNELS 3 Zrotation Xrotation Yrotation
				JOINT RightForeFoot
				{
					OFFSET 0.00000 -3.74820 0.00000
					CHANNELS 3 Zrotation Xrotation Yrotation
					JOINT RightToeBase
					{
						OFFSET 0.00000 0.06325 14.43120
						CHANNELS 3 Zrotation Xrotation Yrotation
						End site
						{
							OFFSET 0.00000 0.00000 0.00000
						}
					}
				}
			}
		}
	}
	JOINT LeftUpLeg
	{
		OFFSET 9.98441 0.00000 0.00000
		CHANNELS 3 Zrotation Xrotation Yrotation
		JOINT LeftLeg
		{
			OFFSET 0.00000 -42.11800 0.00000
			CHANNELS 3 Zrotation Xrotation Yrotation
			JOINT LeftFoot
			{
				OFFSET 0.00000 -45.00070 0.00000
				CHANNELS 3 Zrotation Xrotation Yrotation
				JOINT LeftForeFoot
				{
					OFFSET 0.00000 -3.74824 0.00000
					CHANNELS 3 Zrotation Xrotation Yrotation
					JOINT LeftToeBase
					{
						OFFSET 0.00000 0.06325 14.43110
						CHANNELS 3 Zrotation Xrotation Yrotation
						End site
						{
							OFFSET 0.00000 0.00000 0.00000
						}
					}
				}
			}
		}
	}
}
MOTION
Frames: 4
Frame Time: 0.050000
0.011942021131304178 0.017601262284778745 -0.04174526803435056 -0.005437209199632501 0.028912980085030973 -0.03394412992309712 4.866242842045972 2.8856285114519333 -2.181147417153904 -0.5826358788829967 3.8463746158530823 0.3791121942228963 -0.590159118084065 -1.6184495705700626 0.6445710189453292 -0.4435994558876903 -0.5882351679981521 -0.2995011832455119 0.1670612255520047 16.64836402714788 -3.041471726483646 0.35854979488791944 -0.6805288838660674 -6.133620471033873 1.2844823699016747 -18.241041755265556 -0.5906084865260327 -13.908823828521122 4.330052825177259 -17.83930747966265 82.5090315346478 -11.237413242140434 32.15032513221693 23.923751955951857 10.718659510345258 107.41171964512922 9.313905899147937 -0.21787357836565172 -0.0961096322696103 4.479577271888324 -0.09448259419861765 -1.6290494646854679 -0.043743214602635305 0.031286518640309624 -56.200662017888405 0.006683279364662473 -0.01616366250917032 -56.19628384685943 -38.784607287319595 -0.006977629907010098 0.002075188811660223 0.004452025345933132 0.01557201423497315 0.017944370162911102 -0.04641994570199253 0.04054633831886221 0.002363156637958408 -36.681276516354046 -0.012289601745046572 0.04228003861447856 0.026950894708368693 -0.014766125955124262 0.031357880558493374 0.006422403560982417 -0.011772854328398426 0.025860294317697846 -19.78342250019374 -0.0064314742548056475 0.048412195215498256 0.01662877107701152 -0.0286136617090421 -0.037249737405402945 0.016039334260322453 -0.01860864454242021 0.04654349480904619 24.067020780632046 -0.010511034855117105 -0.039762534337317156 28.833395322172027 -0.02279177996494464 -0.02253406071228696 28.86906431823737 -0.01125508798859878 0.015257645521739877 14.696838932667221 3.250879736353632 15.006699693539934 -77.6840183636382 1.1817605922923378 -37.265371797515996 -34.85320564654304 16.20599476949988 -108.2328004189184 -12.801786674594362 3.8722326364011663 -6.135630426325364 -0.44450170109928255 0.06335635214667233 -8.138801721175023 0.0349222222438977 -0.028590842634214967 44.52578051126626 -0.03900120084080784 0.009943178619886523 44.59810981786766 12.500339709067136 -0.03878456677788101 0.03990804373253371 -0.03264076352926659 -0.011855846819471506 -0.023557825747932592 0.0024747262693694955 -0.0028336606598112074 -0.014345913391657849 11.070792364831476 0.022040474785528508 0.012259285448209202 -0.0013474172042420459 -0.035134663568439535 -0.02870647915421442 0.03271839038680928 -0.0018016042625590366 -0.0016715450612671762 4.739426200732555 0.0032562112555435956 -0.03445749660794057 0.04509181761203007 0.025875817756533553 0.02736111944353977 0.020440666004770493 -0.04503402081068303 -0.002390810746436524 -5.640668131666374 -0.003274139196054299 0.028276007991055598 -6.741908619539874 0.04495814558513225 -0.03647865575295917 -6.680124574084346 0.003017310161615114 0.02915349466628838 0.007057860609912701 0.00507679026285133 -0.04063406179384758 8.03708500259543 3.5103934892005073 -19.200652395448408 -0.003961125151631311 10.43601884897433 -0.002570120680643554 -5.612679324392428 -15.66020198561224 3.2194811596009334 0.041559661411822636 0.04033481063067584 0.04154172075637525 0.038170359806390636 4.650260314953669 0.014143687278060237 12.506988041857474 -8.27082820907108 6.898001047419449 -0.03903844999555386 46.38980717934136 -0.033485098313756324 -4.31542409818535 -14.723476719386708 -3.8230877943569332 -0.04279131464516682 0.008121308668039905 0.006684469932216433 -0.005201176824250785 -10.72504421283225 0.035236337129392704 
0.02040857130253823 0.0008104327610053683 -0.036166244812763336 -0.04295771394562121 -0.009786931134285705 0.03426999782448151 5.0109387494931426 2.918404899509578 -2.198601159667082 -0.7026647579323182 3.780695715630294 0.3715079456421679 -0.6505343488837353 -1.5941056452892788 0.42185104091485515 -0.3761033548162646 -0.5296589019963085 -0.27791982770502877 0.08372015101795853 16.497124432068855 -2.967735182619964 0.3111433990855135 -0.7263046189634658 -5.8720421613701035 1.2323945814485229 -18.246515129729055 -0.6070060230323164 -14.060676907809043 4.311946772977822 -17.910252326521245 83.65063080180863 -10.622945303663704 30.974174422395468 26.578862532851886 10.812062414565736 106.67516078055367 9.196161879501226 -0.20903396122392037 -0.5217882204579758 4.514229240770549 -0.0796843151405075 -1.6222955549479834 -0.04346171913238801 -0.013901232229968707 -56.24565709009276 -0.013534011184831872 0.010375325430208547 -56.2378161984208 -38.81661925476033 -0.037833852238215546 0.015538297583434132 0.02231382463057347 -0.03749685675225846 0.010030679170951835 -0.017125621008083555 -0.04352313491018326 0.0016978830088876828 -36.7161481833577 -0.026209785595417753 0.04781524381588513 0.021040394784921066 0.009208689493898147 -0.0041597063141271574 0.008780302596859114 -0.024228381726288706 0.043006411664035946 -19.760281156478896 0.045650271167621645 -0.02848209188451307 0.005202005070055521 0.012747767492542542 -0.02548208859460552 0.04365076729753043 -0.004356426311509743 -0.03101863998561961 24.015942229364672 -0.04464896754965065 0.04514859178399076 28.908902738585528 -0.0034190886631218515 0.03588894375249462 28.863178061138232 -0.017993582351753638 -0.034347910968646284 14.964870081893618 3.2385685024481123 15.036055534126493 -78.28590962869785 0.051951241107989043 -37.50406937833412 -41.149056633305314 16.797850686666685 -109.45085447404087 -12.19185035500592 3.2385320727051448 -5.18782198699909 -0.5184223726101223 0.10346485503251521 -8.117402864799747 0.026804341505958645 -0.0107062684663597 44.56836080438747 0.024995317534510276 0.028480568250173068 44.563539342214 12.44858864260855 -0.028226788179029128 -0.033327431868707964 0.02495897221434229 -0.004863970160983816 0.009648985547680339 -0.01882231087769474 0.008590627379480477 0.01583138577338774 11.079224266526564 0.034130799064760534 0.04449091625694003 0.03602799843580249 -0.04927061954879445 -0.025486504620700727 -0.011502096720772617 -0.008818497208726458 0.015193364765583734 4.767679394929954 -0.008364001733245658 0.026374880255248184 0.015269687448033075 -0.021719522143226224 0.030477930449460455 -0.021213046488148524 -0.018609914116553983 0.04390077454622633 -5.555480967021598 0.019530125881502516 -0.0074955920770309456 -6.71258058737778 0.008741544559007362 -0.04612060196138379 -6.694312508862846 -0.010009939498458093 -0.02925429840785381 0.022280022138786146 0.0257667223469368 0.013813536527211755 8.03689187357866 3.4852001737388365 -19.20730851734232 0.0013701273811174185 10.399157850279673 0.028538187850290817 -5.586789786332242 -15.636045695762725 3.145394611765632 0.02308138524406724 -0.014267093924893712 0.013139414779104177 0.0330665508928304 4.703819878275872 -0.006961362013070184 12.428039271871869 -8.261425983916828 6.854067052071329 0.02307738561125174 46.350137997104795 0.049176183911165815 -4.302688281922473 -14.744020958413353 -3.8763533217164925 -0.04022222547756596 0.032555929004952223 -0.004543942442075014 0.02176411201773793 -10.789950868791784 -0.030647216438100464 
0.03186037475338244 -0.019078896818490523 -0.015459679944446811 -0.03114753138771531 -0.021210572660976555 -0.008289916487380703 5.00554615322746 2.9982838175128754 -2.2335633827577355 -0.6560856050221856 3.755640267893252 0.35340023388825487 -0.6983669141027791 -1.607407809548188 0.4230660583599972 -0.41989525475258477 -0.49635728921008737 -0.26979915903385415 0.0646071085085045 16.425694696258745 -2.860208673177821 0.3541512186919533 -0.7303202111984426 -5.786779990449714 1.211494292809782 -18.24538614828766 -0.5256068924833771 -14.333752985716876 4.346474949822885 -18.0378024332263 84.65255689650103 -10.8861442350413 30.57103671332626 28.31759109418861 10.496662780549954 105.65330230731402 9.24795012618662 -0.26552042633869233 -0.9241960098075197 4.574761971111607 -0.08602950508335541 -1.6373324514904 -0.049495604765566185 0.005185041318770015 -56.19929595624208 0.00955574078367954 0.04174442132085132 -56.27960130669722 -38.770362389160745 0.03643222596491138 0.036575165561396096 0.038144728955067916 -0.02519997794641061 0.010119281347379194 0.01671144075664816 -0.012421483256885035 -0.029594089534519804 -36.684437986513956 0.03452311581676629 -0.03376144983017945 -0.04801543084475218 0.014880710537204331 -0.04013363881534971 -0.03135804071887112 -0.010067671987693714 0.0423390109149373 -19.781442590034718 0.04298399194024982 0.016648081512834034 0.03388129021622522 -0.022547433158254516 -0.0003731835086184897 -0.04913329473990737 0.007323877604477888 -0.015564786191452911 24.090303048575265 0.014497245455643248 -0.009065354158457923 28.87296195003864 0.007993012310016517 -0.010766428936562097 28.818264357718743 0.00904576761843588 0.04602507847733788 15.225194978055352 3.343682548070958 14.998812889145789 -78.68013526713688 -0.9209947878239901 -36.81821022949179 -46.10059461127265 16.5297605385077 -109.9806604426622 -11.55987134210933 2.691235684740376 -4.251916319876724 -0.46101225293080117 0.0779438072429305 -8.083170737387706 -0.04154893978191714 0.003708992758343963 44.56221143377981 -0.04091172543628816 0.021714754686515857 44.56181923376101 12.415334188152748 -0.018751307296610037 -0.017781424589806267 0.006729606288617827 -0.012884891224059329 -0.017223435057035205 0.04902575269774637 -0.006135646009351943 -0.03151158829131891 11.147271504645614 -0.02671489389064377 0.013669454964479806 0.02573836498607191 -0.04373954293033797 -0.02430008874387892 0.02424624438827172 0.01958191122627573 -0.00033767678684755377 4.770349258722459 -0.024178618751885067 0.037295622187279415 0.0014466754452289615 -0.028751133476801943 0.008650355137799895 -0.006701809329154208 -0.04895286402591189 0.027745694400655933 -5.612013835602707 -0.0008283774520410723 -0.024803097459213354 -6.763258460897589 0.018999736741991537 0.029145233687358472 -6.690364874738689 -0.04496995676897824 -0.02758083233165654 -0.02820672929558505 -0.0352089032393951 -0.016659580934409297 8.069478529176559 3.542622231056293 -19.208930703896204 -0.0029088829046749263 10.374994255012194 0.0054797665011376735 -5.6225753331942245 -15.61222881012562 3.2364968622248296 -0.024037979993039898 0.012108096464402588 0.018930196561554206 0.02365248759166065 4.736194882170669 -0.00657945591620906 12.470655690230496 -8.25757798904186 6.851399410121856 -0.014102660693195457 46.42220829638227 0.019239186779753167 -4.362930675415183 -14.770563796028219 -3.881252287840008 -0.03357341440725039 -0.03851013474336344 0.043861637100297106 0.020220050670495128 -10.761777887907948 0.01646112689346873 
0.006393658511060336 0.027422292497145836 -0.009569284263171338 -0.04956530995332292 -0.02799903945122977 -0.02728859081722821 4.943331101507904 3.1544690547914342 -2.162691727662626 -0.7102775547423611 3.7392895300501046 0.3493730770554804 -0.6441567051774957 -1.5584195975622162 0.374157184551999 -0.45606594643719134 -0.4164227980525071 -0.3186695942558227 0.10359621833725667 16.057603112919022 -2.903099626448026 0.3626827923824824 -0.7742107515078864 -5.891395559226621 1.2308260770642014 -18.383744836446372 -0.5796678491000168 -14.32882185763603 4.373594223428168 -17.884798713161057 85.78510293250858 -10.780002813109627 30.206683805291117 29.26918047344036 9.90284581641765 104.91073982090101 9.324649152792091 -0.31058628070872696 -1.4333936428674674 4.506498098104061 -0.14974010620014372 -1.5937826488491773 0.01409226301566274 0.04394950046004652 -56.272952074614665 -0.04898544312430072 0.014630774814319597 -56.272411104062215 -38.81089832522309 -0.007374782864965855 -0.025023900021156502 -0.03392851853821561 -0.03461255712227009 0.025330230606152422 0.04357957972572994 0.0035035737214646574 0.02458577622210441 -36.70461512821632 0.017505491622647903 -0.011849146351865871 0.032123123240824725 0.02269225975325226 0.030418970302427326 0.036659340380248276 0.04902479125114676 0.026881575573330582 -19.75725097563695 -0.0212879371458275 0.03577722812358419 0.017617063212694958 0.004804190217477532 0.033576743713555374 -0.03990700990408438 0.012436755059948616 -0.030105949296909896 24.103856552670315 0.012000911892306641 -0.025733440076231386 28.871258082166573 0.045058855815797216 -0.005050316242620355 28.879373233350503 0.024124338595606767 -0.018117859330982533 15.157272658269989 3.259236133615239 14.826023488719933 -79.15038668260375 -1.2287493791847428 -35.72137848422416 -50.29025754365475 15.848066482698108 -110.01781308905736 -10.860480356666342 2.0773801078345775 -3.4270761595568713 -0.4633558512372045 0.018540203678238727 -8.092281292195963 0.020446704105588773 0.003445663504961994 44.5414803521187 0.011505090086702344 -0.0016337341392535093 44.559341599449944 12.43274551146988 0.037440974138952005 0.014641974190038043 0.005217339030875231 -0.022470930913305043 0.0009188223795341226 -0.008681369416825062 0.020747701739122708 -0.04248896163142992 11.099145957337258 0.03046167298196814 0.007950573813186323 -0.013835137101017273 -0.003473127869251621 0.01849485341765357 -0.03219513058099439 -0.0371021256018055 0.0368342315100206 4.761689739377912 0.008419056441005577 0.006661117358622207 -0.048143282776890554 -0.02998983989940887 0.011832190225520678 0.026361261358231733 -0.03636536753728448 -0.03986541496373837 -5.587384599374999 0.04946121474719226 -0.004783163904548339 -6.693027140627356 -0.00042986435796341565 -0.02415332430982497 -6.701549867282182 0.03376360038635821 -0.04962990509583728 -0.004825374826213609 0.013294526041460936 -0.030010689339223715 8.035264231810864 3.444663699880829 -19.24894113345981 0.023105043581392568 10.377035632933705 0.05377499421894502 -5.582331253443895 -15.653629314035992 3.1658958411140476 -0.03633762888041851 0.031497007744451105 -0.029284103870494335 0.0048577971032778946 4.722189540417683 0.03775213398376143 12.428812687377814 -8.222097774509903 6.929244930602182 0.01737356275619367 46.374633621282264 0.028336770696631607 -4.340568619801289 -14.716222592176415 -3.8320835698742703 -0.04929338971138285 -0.030947673672977894 0.014143793167566678 0.01946288337085163 -10.721355432548261 0.04199737316902446 
